<svg width="1920" height="654" viewBox="0 0 1920 654" fill="none" xmlns="http://www.w3.org/2000/svg">
<g clip-path="url(#clip0)">
<rect width="1920" height="6590" transform="translate(0 -5936)" fill="white"/>
<path d="M1139 657.5L-0.25 1315.25L-0.25 -0.246277L1139 657.5Z" fill="#BDBCFF"/>
<path d="M312 180H1920V654H312V180Z" fill="#BDBCFF"/>
<path d="M314.418 305.23C314.418 313.598 312.32 320.102 308.125 324.742C303.953 329.383 298.035 331.703 290.371 331.703C282.613 331.703 276.648 329.406 272.477 324.812C268.328 320.195 266.254 313.645 266.254 305.16C266.254 296.676 268.34 290.16 272.512 285.613C276.707 281.066 282.684 278.793 290.441 278.793C298.082 278.793 303.988 281.102 308.16 285.719C312.332 290.336 314.418 296.84 314.418 305.23ZM275.184 305.23C275.184 311.559 276.461 316.363 279.016 319.645C281.57 322.902 285.355 324.531 290.371 324.531C295.363 324.531 299.125 322.914 301.656 319.68C304.211 316.445 305.488 311.629 305.488 305.23C305.488 298.926 304.223 294.145 301.691 290.887C299.184 287.629 295.434 286 290.441 286C285.402 286 281.594 287.629 279.016 290.887C276.461 294.145 275.184 298.926 275.184 305.23ZM346.902 323.09L347.359 321.402C348.32 317.91 349.152 315.227 349.855 313.352L358.574 292.117H369.578V331H361.949V299.605L361.316 301.715C360.262 305.488 359.371 308.266 358.645 310.047L350.137 331H343.879L335.371 309.906C334.199 306.859 333.121 303.426 332.137 299.605V331H324.578V292.117H335.512L343.949 312.719C344.699 314.617 345.684 318.074 346.902 323.09ZM412.785 279.602V286.809H390.672V331H382.27V279.602H412.785ZM438.906 331H430.504V286.809H415.387V279.602H454.023V286.809H438.906V331ZM501.027 279.602L484.82 316.164C482.828 320.641 481 323.887 479.336 325.902C477.672 327.895 475.738 329.359 473.535 330.297C471.355 331.234 468.707 331.703 465.59 331.703C462.871 331.703 460.352 331.352 458.031 330.648V323.09C460.328 324.004 462.73 324.461 465.238 324.461C467.371 324.461 469.152 323.945 470.582 322.914C472.035 321.859 473.348 319.973 474.52 317.254L455.57 279.602H464.641L477.191 305.371C478.316 307.809 479.008 309.438 479.266 310.258H479.617C479.758 309.648 480.109 308.676 480.672 307.34L492.238 279.602H501.027Z" fill="white"/>
<path d="M263.266 404V401.293L266.061 400.766V381.658L263.266 381.131V378.406H273.285V381.131L270.49 381.658V394.719L270.596 394.754L281.74 383.152V381.658L278.963 381.131V378.406H288.965V381.131L286.188 381.658V400.766L288.965 401.293V404H278.963V401.293L281.74 400.766V388.074L281.635 388.039L270.49 399.641V400.766L273.285 401.293V404H263.266ZM291.566 404V401.293L294.361 400.766V388.232L291.566 387.705V384.98H301.27V387.705L298.791 388.232V392.891H305.963V388.232L303.484 387.705V384.98H313.188V387.705L310.393 388.232V400.766L313.188 401.293V404H303.484V401.293L305.963 400.766V396.318H298.791V400.766L301.27 401.293V404H291.566ZM322.732 411.312V408.588L325.51 408.061V403.93C324.748 404.223 323.922 404.369 323.031 404.369C320.84 404.369 319.141 403.525 317.934 401.838C316.727 400.139 316.123 397.895 316.123 395.105V394.736C316.123 392.709 316.393 390.939 316.932 389.428C317.482 387.916 318.273 386.738 319.305 385.895C320.336 385.051 321.59 384.629 323.066 384.629C323.535 384.629 323.969 384.67 324.367 384.752C324.766 384.834 325.146 384.945 325.51 385.086V379.83L322.732 379.303V376.578H329.939V385.156C330.303 384.992 330.701 384.863 331.135 384.77C331.58 384.676 332.061 384.629 332.576 384.629C334.041 384.629 335.289 385.051 336.32 385.895C337.363 386.738 338.154 387.916 338.693 389.428C339.244 390.939 339.52 392.709 339.52 394.736V395.105C339.52 397.895 338.91 400.139 337.691 401.838C336.484 403.525 334.791 404.369 332.611 404.369C332.096 404.369 331.615 404.322 331.17 404.229C330.725 404.146 330.314 404.029 329.939 403.877V408.061L332.734 408.588V411.312H322.732ZM324.191 400.959C324.684 400.959 325.123 400.889 325.51 400.748V388.25C325.322 388.203 325.123 388.162 324.912 388.127C324.701 388.08 324.473 388.057 324.227 388.057C322.961 388.057 322.029 388.672 321.432 389.902C320.846 391.133 320.553 392.744 320.553 394.736V395.105C320.553 396.898 320.834 398.322 321.396 399.377C321.971 400.432 322.902 400.959 324.191 400.959ZM331.363 400.959C332.629 400.959 333.566 400.426 334.176 399.359C334.785 398.293 335.09 396.875 335.09 395.105V394.736C335.09 392.768 334.779 391.162 334.158 389.92C333.537 388.678 332.588 388.057 331.311 388.057C330.807 388.057 330.35 388.133 329.939 388.285V400.748C330.338 400.889 330.812 400.959 331.363 400.959ZM351.297 404.369C349.469 404.369 347.898 403.959 346.586 403.139C345.273 402.307 344.266 401.164 343.562 399.711C342.859 398.258 342.508 396.582 342.508 394.684V394.314C342.508 392.428 342.859 390.758 343.562 389.305C344.266 387.852 345.273 386.709 346.586 385.877C347.898 385.045 349.457 384.629 351.262 384.629C353.09 384.629 354.66 385.045 355.973 385.877C357.285 386.697 358.293 387.84 358.996 389.305C359.699 390.758 360.051 392.428 360.051 394.314V394.684C360.051 396.594 359.699 398.275 358.996 399.729C358.293 401.182 357.285 402.318 355.973 403.139C354.672 403.959 353.113 404.369 351.297 404.369ZM351.297 400.959C352.762 400.959 353.852 400.379 354.566 399.219C355.281 398.047 355.639 396.535 355.639 394.684V394.314C355.639 392.498 355.275 391.004 354.549 389.832C353.834 388.648 352.738 388.057 351.262 388.057C349.797 388.057 348.707 388.648 347.992 389.832C347.289 391.004 346.938 392.498 346.938 394.314V394.684C346.938 396.535 347.289 398.047 347.992 399.219C348.707 400.379 349.809 400.959 351.297 400.959ZM362.318 411.312V408.588L364.885 408.061V388.232L362.09 387.705V384.98H368.857L369.139 387.23C369.736 386.398 370.451 385.76 371.283 385.314C372.127 384.857 373.123 384.629 374.271 384.629C375.818 384.629 377.143 385.051 378.244 385.895C379.346 386.738 380.184 387.916 380.758 389.428C381.344 390.939 381.637 392.709 381.637 394.736V395.105C381.637 396.957 381.344 398.58 380.758 399.975C380.172 401.357 379.328 402.436 378.227 403.209C377.125 403.982 375.807 404.369 374.271 404.369C372.139 404.369 370.48 403.619 369.297 402.119V408.061L372.004 408.588V411.312H362.318ZM372.936 400.959C374.389 400.959 375.461 400.426 376.152 399.359C376.855 398.281 377.207 396.863 377.207 395.105V394.736C377.207 392.779 376.85 391.191 376.135 389.973C375.432 388.742 374.354 388.127 372.9 388.127C372.08 388.127 371.365 388.314 370.756 388.689C370.146 389.053 369.66 389.568 369.297 390.236V398.955C370.059 400.291 371.271 400.959 372.936 400.959ZM384.643 404V401.293L387.455 400.766V388.232L384.643 387.705V384.98H392.992L398.406 398.621H398.512L403.961 384.98H412.293V387.705L409.516 388.232V400.766L412.293 401.293V404H402.748V401.293L405.086 400.766V391.889L404.98 391.854L399.971 404H396.965L391.973 391.871L391.867 391.889V400.766L394.205 401.293V404H384.643ZM421.205 404.369C419.271 404.369 417.766 403.871 416.688 402.875C415.609 401.879 415.07 400.508 415.07 398.762C415.07 396.969 415.797 395.516 417.25 394.402C418.715 393.289 420.812 392.732 423.543 392.732H426.443V391.133C426.443 390.125 426.139 389.322 425.529 388.725C424.932 388.127 424.059 387.828 422.91 387.828C422.254 387.828 421.674 387.91 421.17 388.074C420.666 388.227 420.215 388.449 419.816 388.742L419.43 391.309H416.16L416.125 386.615C417.051 385.994 418.088 385.508 419.236 385.156C420.396 384.805 421.68 384.629 423.086 384.629C425.5 384.629 427.398 385.197 428.781 386.334C430.176 387.471 430.873 389.088 430.873 391.186V399.57C430.873 399.828 430.873 400.08 430.873 400.326C430.885 400.561 430.902 400.801 430.926 401.047L432.859 401.293V404H427.076C426.959 403.59 426.848 403.191 426.742 402.805C426.648 402.418 426.578 402.031 426.531 401.645C425.898 402.441 425.131 403.098 424.229 403.613C423.326 404.117 422.318 404.369 421.205 404.369ZM422.207 400.941C423.109 400.941 423.941 400.736 424.703 400.326C425.477 399.904 426.057 399.377 426.443 398.744V395.562H423.49C422.166 395.562 421.164 395.873 420.484 396.494C419.816 397.104 419.482 397.818 419.482 398.639C419.482 400.174 420.391 400.941 422.207 400.941ZM452.002 409.643V404H434.916V401.293L437.693 400.766V388.232L434.916 387.705V384.98H444.672V387.705L442.123 388.232V400.59H449.33V388.232L446.764 387.705V384.98H456.555V387.705L453.777 388.25V400.59H456.414L456.062 409.643H452.002ZM459.508 404V401.293L462.303 400.766V388.232L459.508 387.705V384.98H469.352V387.705L466.732 388.232V397.338L466.838 397.355L473.939 384.98H481.164V387.705L478.369 388.232V400.766L481.164 401.293V404H471.303V401.293L473.939 400.766V391.625L473.834 391.607L466.732 404H459.508ZM492.73 404.369C490.902 404.369 489.332 403.959 488.02 403.139C486.707 402.307 485.699 401.164 484.996 399.711C484.293 398.258 483.941 396.582 483.941 394.684V394.314C483.941 392.428 484.293 390.758 484.996 389.305C485.699 387.852 486.707 386.709 488.02 385.877C489.332 385.045 490.891 384.629 492.695 384.629C494.523 384.629 496.094 385.045 497.406 385.877C498.719 386.697 499.727 387.84 500.43 389.305C501.133 390.758 501.484 392.428 501.484 394.314V394.684C501.484 396.594 501.133 398.275 500.43 399.729C499.727 401.182 498.719 402.318 497.406 403.139C496.105 403.959 494.547 404.369 492.73 404.369ZM492.73 400.959C494.195 400.959 495.285 400.379 496 399.219C496.715 398.047 497.072 396.535 497.072 394.684V394.314C497.072 392.498 496.709 391.004 495.982 389.832C495.268 388.648 494.172 388.057 492.695 388.057C491.23 388.057 490.141 388.648 489.426 389.832C488.723 391.004 488.371 392.498 488.371 394.314V394.684C488.371 396.535 488.723 398.047 489.426 399.219C490.141 400.379 491.242 400.959 492.73 400.959ZM504.438 404V401.293L507.232 400.766V388.232L504.438 387.705V384.98H514.141V387.705L511.662 388.232V392.891H518.834V388.232L516.355 387.705V384.98H526.059V387.705L523.264 388.232V400.766L526.059 401.293V404H516.355V401.293L518.834 400.766V396.318H511.662V400.766L514.141 401.293V404H504.438ZM529.152 404V401.293L531.947 400.766V388.232L529.152 387.705V384.98H538.855V387.705L536.377 388.232V392.891H543.549V388.232L541.07 387.705V384.98H550.773V387.705L547.979 388.232V400.766L550.773 401.293V404H541.07V401.293L543.549 400.766V396.318H536.377V400.766L538.855 401.293V404H529.152ZM573.326 404V401.293L575.963 400.766V388.232L573.168 387.705V384.98H580.393V400.766L583.029 401.293V404H573.326ZM565.205 391.291C567.643 391.291 569.547 391.865 570.918 393.014C572.289 394.162 572.975 395.674 572.975 397.549C572.975 399.471 572.283 401.029 570.9 402.225C569.529 403.408 567.631 404 565.205 404H553.92V401.293L556.732 400.766V388.232L553.92 387.705V384.98H563.957V387.705L561.162 388.232V391.291H565.205ZM561.162 400.59H565.205C566.342 400.59 567.186 400.314 567.736 399.764C568.287 399.213 568.562 398.504 568.562 397.637C568.562 396.77 568.287 396.043 567.736 395.457C567.186 394.871 566.342 394.578 565.205 394.578H561.162V400.59ZM585.262 404V401.293L588.057 400.766V388.232L585.262 387.705V384.98H595.105V387.705L592.486 388.232V397.338L592.592 397.355L599.693 384.98H606.918V387.705L604.123 388.232V400.766L606.918 401.293V404H597.057V401.293L599.693 400.766V391.625L599.588 391.607L592.486 404H585.262ZM596.16 381.729C594.344 381.729 592.908 381.26 591.854 380.322C590.811 379.385 590.301 378.172 590.324 376.684L590.359 376.578H593.488C593.488 377.328 593.699 377.943 594.121 378.424C594.555 378.904 595.234 379.145 596.16 379.145C597.062 379.145 597.73 378.91 598.164 378.441C598.598 377.961 598.814 377.34 598.814 376.578H601.943L601.979 376.684C601.99 378.172 601.475 379.385 600.432 380.322C599.389 381.26 597.965 381.729 596.16 381.729ZM618.959 404V401.293L621.771 400.766V388.232L618.959 387.705V384.98H629.523C632.043 384.98 634 385.42 635.395 386.299C636.789 387.178 637.486 388.479 637.486 390.201C637.486 391.115 637.211 391.924 636.66 392.627C636.109 393.318 635.295 393.852 634.217 394.227C635.588 394.52 636.619 395.064 637.311 395.861C638.002 396.646 638.348 397.572 638.348 398.639C638.348 400.396 637.686 401.732 636.361 402.646C635.049 403.549 633.174 404 630.736 404H618.959ZM626.184 392.855H629.594C631.902 392.844 633.057 392.105 633.057 390.641C633.057 389.129 631.885 388.373 629.541 388.373H626.184V392.855ZM626.184 400.625H630.736C632.857 400.625 633.918 399.834 633.918 398.252C633.918 396.682 632.857 395.896 630.736 395.896H626.184V400.625ZM649.896 404.369C648.092 404.369 646.527 403.971 645.203 403.174C643.879 402.365 642.848 401.252 642.109 399.834C641.383 398.416 641.02 396.793 641.02 394.965V394.227C641.02 392.375 641.377 390.729 642.092 389.287C642.818 387.834 643.809 386.697 645.062 385.877C646.328 385.045 647.775 384.629 649.404 384.629C651.971 384.629 653.922 385.391 655.258 386.914C656.605 388.438 657.279 390.529 657.279 393.189V395.721H645.607L645.572 395.809C645.643 397.309 646.076 398.545 646.873 399.518C647.67 400.479 648.807 400.959 650.283 400.959C651.314 400.959 652.252 400.818 653.096 400.537C653.939 400.256 654.725 399.857 655.451 399.342L656.822 402.119C656.072 402.764 655.117 403.303 653.957 403.736C652.809 404.158 651.455 404.369 649.896 404.369ZM645.678 392.609H653.043V392.152C653.043 390.91 652.75 389.902 652.164 389.129C651.59 388.355 650.688 387.969 649.457 387.969C648.379 387.969 647.506 388.402 646.838 389.27C646.182 390.137 645.777 391.221 645.625 392.521L645.678 392.609ZM669.074 404.369C667.246 404.369 665.676 403.977 664.363 403.191C663.051 402.395 662.043 401.305 661.34 399.922C660.637 398.527 660.285 396.928 660.285 395.123V392.68C660.285 388.613 661.082 385.473 662.676 383.258C664.281 381.043 666.402 379.678 669.039 379.162C670.316 378.939 671.248 378.658 671.834 378.318C672.432 377.979 672.73 377.428 672.73 376.666H676.158L676.211 376.771C676.234 378.225 675.994 379.332 675.49 380.094C674.986 380.855 674.254 381.412 673.293 381.764C672.344 382.115 671.207 382.414 669.883 382.66C668.207 382.965 666.889 383.562 665.928 384.453C664.967 385.332 664.375 386.562 664.152 388.145L664.223 388.232C664.879 387.588 665.682 387.066 666.631 386.668C667.592 386.258 668.629 386.053 669.742 386.053C671.406 386.053 672.842 386.428 674.049 387.178C675.256 387.916 676.188 388.941 676.844 390.254C677.512 391.566 677.846 393.084 677.846 394.807V395.176C677.846 396.992 677.488 398.592 676.773 399.975C676.07 401.346 675.062 402.424 673.75 403.209C672.449 403.982 670.891 404.369 669.074 404.369ZM669.074 400.959C670.539 400.959 671.629 400.426 672.344 399.359C673.059 398.281 673.416 396.887 673.416 395.176V394.807C673.416 393.26 673.053 391.988 672.326 390.992C671.611 389.984 670.516 389.48 669.039 389.48C667.574 389.48 666.484 389.984 665.77 390.992C665.066 391.988 664.715 393.26 664.715 394.807V395.123C664.715 396.834 665.066 398.234 665.77 399.324C666.484 400.414 667.586 400.959 669.074 400.959ZM681.643 394.824V391.396H690.994V394.824H681.643ZM703.352 404.369C701.57 404.369 700.023 403.965 698.711 403.156C697.41 402.336 696.402 401.211 695.688 399.781C694.984 398.34 694.633 396.682 694.633 394.807V394.191C694.633 392.352 694.984 390.711 695.688 389.27C696.391 387.828 697.393 386.697 698.693 385.877C700.006 385.045 701.553 384.629 703.334 384.629C704.963 384.629 706.381 384.893 707.588 385.42C708.795 385.936 709.785 386.58 710.559 387.354L710.576 392.434H707.201L706.551 389.076C706.223 388.736 705.807 388.467 705.303 388.268C704.799 388.057 704.248 387.951 703.65 387.951C702.186 387.951 701.055 388.531 700.258 389.691C699.461 390.84 699.062 392.34 699.062 394.191V394.807C699.062 396.822 699.461 398.352 700.258 399.395C701.066 400.438 702.104 400.959 703.369 400.959C704.377 400.959 705.203 400.684 705.848 400.133C706.492 399.582 706.914 398.82 707.113 397.848H710.945L710.998 397.953C710.787 399.816 710.066 401.352 708.836 402.559C707.617 403.766 705.789 404.369 703.352 404.369ZM719.928 404.369C717.994 404.369 716.488 403.871 715.41 402.875C714.332 401.879 713.793 400.508 713.793 398.762C713.793 396.969 714.52 395.516 715.973 394.402C717.438 393.289 719.535 392.732 722.266 392.732H725.166V391.133C725.166 390.125 724.861 389.322 724.252 388.725C723.654 388.127 722.781 387.828 721.633 387.828C720.977 387.828 720.396 387.91 719.893 388.074C719.389 388.227 718.938 388.449 718.539 388.742L718.152 391.309H714.883L714.848 386.615C715.773 385.994 716.811 385.508 717.959 385.156C719.119 384.805 720.402 384.629 721.809 384.629C724.223 384.629 726.121 385.197 727.504 386.334C728.898 387.471 729.596 389.088 729.596 391.186V399.57C729.596 399.828 729.596 400.08 729.596 400.326C729.607 400.561 729.625 400.801 729.648 401.047L731.582 401.293V404H725.799C725.682 403.59 725.57 403.191 725.465 402.805C725.371 402.418 725.301 402.031 725.254 401.645C724.621 402.441 723.854 403.098 722.951 403.613C722.049 404.117 721.041 404.369 719.928 404.369ZM720.93 400.941C721.832 400.941 722.664 400.736 723.426 400.326C724.199 399.904 724.779 399.377 725.166 398.744V395.562H722.213C720.889 395.562 719.887 395.873 719.207 396.494C718.539 397.104 718.205 397.818 718.205 398.639C718.205 400.174 719.113 400.941 720.93 400.941ZM734.184 404V401.293L736.979 400.766V388.232L734.184 387.705V384.98H744.027V387.705L741.408 388.232V397.338L741.514 397.355L748.615 384.98H755.84V387.705L753.045 388.232V400.766L755.84 401.293V404H745.979V401.293L748.615 400.766V391.625L748.51 391.607L741.408 404H734.184ZM745.082 381.729C743.266 381.729 741.83 381.26 740.775 380.322C739.732 379.385 739.223 378.172 739.246 376.684L739.281 376.578H742.41C742.41 377.328 742.621 377.943 743.043 378.424C743.477 378.904 744.156 379.145 745.082 379.145C745.984 379.145 746.652 378.91 747.086 378.441C747.52 377.961 747.736 377.34 747.736 376.578H750.865L750.9 376.684C750.912 378.172 750.396 379.385 749.354 380.322C748.311 381.26 746.887 381.729 745.082 381.729ZM762.977 404V401.293L765.771 400.766V388.373H762.238L762.01 391.115H758.494V384.98H777.566V391.115H774.033L773.805 388.373H770.201V400.766L772.979 401.293V404H762.977ZM781.838 410.012L779.553 408.658C780.057 407.838 780.438 406.988 780.695 406.109C780.953 405.23 781.082 404.27 781.082 403.227V399.887H785.213L785.195 403.068C785.195 404.346 784.879 405.611 784.246 406.865C783.613 408.119 782.811 409.168 781.838 410.012ZM797.395 404V401.293L800.189 400.766V388.232L797.395 387.705V384.98H819.051V387.705L816.256 388.232V400.766L819.051 401.293V404H809.348V401.293L811.826 400.766V388.426H804.619V400.766L807.098 401.293V404H797.395ZM830.617 404.369C828.789 404.369 827.219 403.959 825.906 403.139C824.594 402.307 823.586 401.164 822.883 399.711C822.18 398.258 821.828 396.582 821.828 394.684V394.314C821.828 392.428 822.18 390.758 822.883 389.305C823.586 387.852 824.594 386.709 825.906 385.877C827.219 385.045 828.777 384.629 830.582 384.629C832.41 384.629 833.98 385.045 835.293 385.877C836.605 386.697 837.613 387.84 838.316 389.305C839.02 390.758 839.371 392.428 839.371 394.314V394.684C839.371 396.594 839.02 398.275 838.316 399.729C837.613 401.182 836.605 402.318 835.293 403.139C833.992 403.959 832.434 404.369 830.617 404.369ZM830.617 400.959C832.082 400.959 833.172 400.379 833.887 399.219C834.602 398.047 834.959 396.535 834.959 394.684V394.314C834.959 392.498 834.596 391.004 833.869 389.832C833.154 388.648 832.059 388.057 830.582 388.057C829.117 388.057 828.027 388.648 827.312 389.832C826.609 391.004 826.258 392.498 826.258 394.314V394.684C826.258 396.535 826.609 398.047 827.312 399.219C828.027 400.379 829.129 400.959 830.617 400.959ZM851.219 404V401.293L854.014 400.766V388.232L851.219 387.705V384.98H872.875V387.705L870.08 388.232V400.766L872.875 401.293V404H863.172V401.293L865.65 400.766V388.426H858.443V400.766L860.922 401.293V404H851.219ZM875.283 411.312V408.588L877.85 408.061V388.232L875.055 387.705V384.98H881.822L882.104 387.23C882.701 386.398 883.416 385.76 884.248 385.314C885.092 384.857 886.088 384.629 887.236 384.629C888.783 384.629 890.107 385.051 891.209 385.895C892.311 386.738 893.148 387.916 893.723 389.428C894.309 390.939 894.602 392.709 894.602 394.736V395.105C894.602 396.957 894.309 398.58 893.723 399.975C893.137 401.357 892.293 402.436 891.191 403.209C890.09 403.982 888.771 404.369 887.236 404.369C885.104 404.369 883.445 403.619 882.262 402.119V408.061L884.969 408.588V411.312H875.283ZM885.9 400.959C887.354 400.959 888.426 400.426 889.117 399.359C889.82 398.281 890.172 396.863 890.172 395.105V394.736C890.172 392.779 889.814 391.191 889.1 389.973C888.396 388.742 887.318 388.127 885.865 388.127C885.045 388.127 884.33 388.314 883.721 388.689C883.111 389.053 882.625 389.568 882.262 390.236V398.955C883.023 400.291 884.236 400.959 885.9 400.959ZM906.695 404.369C904.867 404.369 903.297 403.959 901.984 403.139C900.672 402.307 899.664 401.164 898.961 399.711C898.258 398.258 897.906 396.582 897.906 394.684V394.314C897.906 392.428 898.258 390.758 898.961 389.305C899.664 387.852 900.672 386.709 901.984 385.877C903.297 385.045 904.855 384.629 906.66 384.629C908.488 384.629 910.059 385.045 911.371 385.877C912.684 386.697 913.691 387.84 914.395 389.305C915.098 390.758 915.449 392.428 915.449 394.314V394.684C915.449 396.594 915.098 398.275 914.395 399.729C913.691 401.182 912.684 402.318 911.371 403.139C910.07 403.959 908.512 404.369 906.695 404.369ZM906.695 400.959C908.16 400.959 909.25 400.379 909.965 399.219C910.68 398.047 911.037 396.535 911.037 394.684V394.314C911.037 392.498 910.674 391.004 909.947 389.832C909.232 388.648 908.137 388.057 906.66 388.057C905.195 388.057 904.105 388.648 903.391 389.832C902.688 391.004 902.336 392.498 902.336 394.314V394.684C902.336 396.535 902.688 398.047 903.391 399.219C904.105 400.379 905.207 400.959 906.695 400.959ZM925.24 411.312V408.588L928.018 408.061V403.93C927.256 404.223 926.43 404.369 925.539 404.369C923.348 404.369 921.648 403.525 920.441 401.838C919.234 400.139 918.631 397.895 918.631 395.105V394.736C918.631 392.709 918.9 390.939 919.439 389.428C919.99 387.916 920.781 386.738 921.812 385.895C922.844 385.051 924.098 384.629 925.574 384.629C926.043 384.629 926.477 384.67 926.875 384.752C927.273 384.834 927.654 384.945 928.018 385.086V379.83L925.24 379.303V376.578H932.447V385.156C932.811 384.992 933.209 384.863 933.643 384.77C934.088 384.676 934.568 384.629 935.084 384.629C936.549 384.629 937.797 385.051 938.828 385.895C939.871 386.738 940.662 387.916 941.201 389.428C941.752 390.939 942.027 392.709 942.027 394.736V395.105C942.027 397.895 941.418 400.139 940.199 401.838C938.992 403.525 937.299 404.369 935.119 404.369C934.604 404.369 934.123 404.322 933.678 404.229C933.232 404.146 932.822 404.029 932.447 403.877V408.061L935.242 408.588V411.312H925.24ZM926.699 400.959C927.191 400.959 927.631 400.889 928.018 400.748V388.25C927.83 388.203 927.631 388.162 927.42 388.127C927.209 388.08 926.98 388.057 926.734 388.057C925.469 388.057 924.537 388.672 923.939 389.902C923.354 391.133 923.061 392.744 923.061 394.736V395.105C923.061 396.898 923.342 398.322 923.904 399.377C924.479 400.432 925.41 400.959 926.699 400.959ZM933.871 400.959C935.137 400.959 936.074 400.426 936.684 399.359C937.293 398.293 937.598 396.875 937.598 395.105V394.736C937.598 392.768 937.287 391.162 936.666 389.92C936.045 388.678 935.096 388.057 933.818 388.057C933.314 388.057 932.857 388.133 932.447 388.285V400.748C932.846 400.889 933.32 400.959 933.871 400.959ZM953.857 404.369C952.053 404.369 950.488 403.971 949.164 403.174C947.84 402.365 946.809 401.252 946.07 399.834C945.344 398.416 944.98 396.793 944.98 394.965V394.227C944.98 392.375 945.338 390.729 946.053 389.287C946.779 387.834 947.77 386.697 949.023 385.877C950.289 385.045 951.736 384.629 953.365 384.629C955.932 384.629 957.883 385.391 959.219 386.914C960.566 388.438 961.24 390.529 961.24 393.189V395.721H949.568L949.533 395.809C949.604 397.309 950.037 398.545 950.834 399.518C951.631 400.479 952.768 400.959 954.244 400.959C955.275 400.959 956.213 400.818 957.057 400.537C957.9 400.256 958.686 399.857 959.412 399.342L960.783 402.119C960.033 402.764 959.078 403.303 957.918 403.736C956.77 404.158 955.416 404.369 953.857 404.369ZM949.639 392.609H957.004V392.152C957.004 390.91 956.711 389.902 956.125 389.129C955.551 388.355 954.648 387.969 953.418 387.969C952.34 387.969 951.467 388.402 950.799 389.27C950.143 390.137 949.738 391.221 949.586 392.521L949.639 392.609ZM972.859 404.369C971.078 404.369 969.531 403.965 968.219 403.156C966.918 402.336 965.91 401.211 965.195 399.781C964.492 398.34 964.141 396.682 964.141 394.807V394.191C964.141 392.352 964.492 390.711 965.195 389.27C965.898 387.828 966.9 386.697 968.201 385.877C969.514 385.045 971.061 384.629 972.842 384.629C974.471 384.629 975.889 384.893 977.096 385.42C978.303 385.936 979.293 386.58 980.066 387.354L980.084 392.434H976.709L976.059 389.076C975.73 388.736 975.314 388.467 974.811 388.268C974.307 388.057 973.756 387.951 973.158 387.951C971.693 387.951 970.562 388.531 969.766 389.691C968.969 390.84 968.57 392.34 968.57 394.191V394.807C968.57 396.822 968.969 398.352 969.766 399.395C970.574 400.438 971.611 400.959 972.877 400.959C973.885 400.959 974.711 400.684 975.355 400.133C976 399.582 976.422 398.82 976.621 397.848H980.453L980.506 397.953C980.295 399.816 979.574 401.352 978.344 402.559C977.125 403.766 975.297 404.369 972.859 404.369ZM992.09 404.369C990.309 404.369 988.762 403.965 987.449 403.156C986.148 402.336 985.141 401.211 984.426 399.781C983.723 398.34 983.371 396.682 983.371 394.807V394.191C983.371 392.352 983.723 390.711 984.426 389.27C985.129 387.828 986.131 386.697 987.432 385.877C988.744 385.045 990.291 384.629 992.072 384.629C993.701 384.629 995.119 384.893 996.326 385.42C997.533 385.936 998.523 386.58 999.297 387.354L999.314 392.434H995.939L995.289 389.076C994.961 388.736 994.545 388.467 994.041 388.268C993.537 388.057 992.986 387.951 992.389 387.951C990.924 387.951 989.793 388.531 988.996 389.691C988.199 390.84 987.801 392.34 987.801 394.191V394.807C987.801 396.822 988.199 398.352 988.996 399.395C989.805 400.438 990.842 400.959 992.107 400.959C993.115 400.959 993.941 400.684 994.586 400.133C995.23 399.582 995.652 398.82 995.852 397.848H999.684L999.736 397.953C999.525 399.816 998.805 401.352 997.574 402.559C996.355 403.766 994.527 404.369 992.09 404.369ZM1002.6 404V401.293L1005.4 400.766V388.232L1002.6 387.705V384.98H1012.45V387.705L1009.83 388.232V397.338L1009.93 397.355L1017.03 384.98H1024.26V387.705L1021.46 388.232V400.766L1024.26 401.293V404H1014.4V401.293L1017.03 400.766V391.625L1016.93 391.607L1009.83 404H1002.6ZM1027.35 404V401.293L1030.15 400.766V388.232L1027.35 387.705V384.98H1037.2V387.705L1034.58 388.232V397.338L1034.68 397.355L1041.78 384.98H1049.01V387.705L1046.21 388.232V400.766L1049.01 401.293V404H1039.15V401.293L1041.78 400.766V391.625L1041.68 391.607L1034.58 404H1027.35ZM263.635 451V448.293L266.447 447.766V435.232L263.635 434.705V431.98H271.984L277.398 445.621H277.504L282.953 431.98H291.285V434.705L288.508 435.232V447.766L291.285 448.293V451H281.74V448.293L284.078 447.766V438.889L283.973 438.854L278.963 451H275.957L270.965 438.871L270.859 438.889V447.766L273.197 448.293V451H263.635ZM302.781 451.369C300.953 451.369 299.383 450.959 298.07 450.139C296.758 449.307 295.75 448.164 295.047 446.711C294.344 445.258 293.992 443.582 293.992 441.684V441.314C293.992 439.428 294.344 437.758 295.047 436.305C295.75 434.852 296.758 433.709 298.07 432.877C299.383 432.045 300.941 431.629 302.746 431.629C304.574 431.629 306.145 432.045 307.457 432.877C308.77 433.697 309.777 434.84 310.48 436.305C311.184 437.758 311.535 439.428 311.535 441.314V441.684C311.535 443.594 311.184 445.275 310.48 446.729C309.777 448.182 308.77 449.318 307.457 450.139C306.156 450.959 304.598 451.369 302.781 451.369ZM302.781 447.959C304.246 447.959 305.336 447.379 306.051 446.219C306.766 445.047 307.123 443.535 307.123 441.684V441.314C307.123 439.498 306.76 438.004 306.033 436.832C305.318 435.648 304.223 435.057 302.746 435.057C301.281 435.057 300.191 435.648 299.477 436.832C298.773 438.004 298.422 439.498 298.422 441.314V441.684C298.422 443.535 298.773 445.047 299.477 446.219C300.191 447.379 301.293 447.959 302.781 447.959ZM318.285 458.682C317.922 458.682 317.5 458.646 317.02 458.576C316.551 458.506 316.141 458.418 315.789 458.312L316.281 454.99C316.48 455.025 316.732 455.055 317.037 455.078C317.342 455.102 317.582 455.113 317.758 455.113C318.496 455.113 319.117 454.885 319.621 454.428C320.125 453.971 320.535 453.32 320.852 452.477L321.432 450.965L314.928 435.021L312.713 434.705V431.98H321.924V434.705L319.604 435.057L322.891 443.916L323.471 445.568H323.576L327.479 435.039L325.141 434.705V431.98H333.877V434.705L331.82 435.004L324.455 453.865C323.939 455.213 323.207 456.35 322.258 457.275C321.309 458.213 319.984 458.682 318.285 458.682ZM335.793 451V448.293L338.588 447.766V435.232L335.793 434.705V431.98H345.795V434.705L343.018 435.232V447.59H348.818V431.98H353.248V447.59H359.066V435.232L356.289 434.705V431.98H366.291V434.705L363.496 435.232V447.766L366.291 448.293V451H335.793ZM377.787 451.369C375.982 451.369 374.418 450.971 373.094 450.174C371.77 449.365 370.738 448.252 370 446.834C369.273 445.416 368.91 443.793 368.91 441.965V441.227C368.91 439.375 369.268 437.729 369.982 436.287C370.709 434.834 371.699 433.697 372.953 432.877C374.219 432.045 375.666 431.629 377.295 431.629C379.861 431.629 381.812 432.391 383.148 433.914C384.496 435.438 385.17 437.529 385.17 440.189V442.721H373.498L373.463 442.809C373.533 444.309 373.967 445.545 374.764 446.518C375.561 447.479 376.697 447.959 378.174 447.959C379.205 447.959 380.143 447.818 380.986 447.537C381.83 447.256 382.615 446.857 383.342 446.342L384.713 449.119C383.963 449.764 383.008 450.303 381.848 450.736C380.699 451.158 379.346 451.369 377.787 451.369ZM373.568 439.609H380.934V439.152C380.934 437.91 380.641 436.902 380.055 436.129C379.48 435.355 378.578 434.969 377.348 434.969C376.27 434.969 375.396 435.402 374.729 436.27C374.072 437.137 373.668 438.221 373.516 439.521L373.568 439.609ZM388.07 451V448.293L390.865 447.766V435.232L388.07 434.705V431.98H397.773V434.705L395.295 435.232V439.891H402.467V435.232L399.988 434.705V431.98H409.691V434.705L406.896 435.232V447.766L409.691 448.293V451H399.988V448.293L402.467 447.766V443.318H395.295V447.766L397.773 448.293V451H388.07ZM413.682 441.824V438.396H423.033V441.824H413.682ZM426.76 456.66L426.391 447.555H427.973C428.688 446.781 429.262 446.014 429.695 445.252C430.129 444.49 430.451 443.6 430.662 442.58C430.885 441.549 431.037 440.26 431.119 438.713L431.225 435.215L428.5 434.705V431.98H447.449V434.705L444.654 435.232V447.59H447.309L446.957 456.66H442.879V451H430.855V456.66H426.76ZM433.053 447.572H440.242V435.654H435.637L435.531 438.713C435.449 440.693 435.191 442.41 434.758 443.863C434.324 445.305 433.756 446.541 433.053 447.572ZM450.191 451V448.293L452.986 447.766V435.232L450.191 434.705V431.98H460.035V434.705L457.416 435.232V444.338L457.521 444.355L464.623 431.98H471.848V434.705L469.053 435.232V447.766L471.848 448.293V451H461.986V448.293L464.623 447.766V438.625L464.518 438.607L457.416 451H450.191ZM482.412 451.352C480.994 451.352 479.693 451.129 478.51 450.684C477.338 450.227 476.406 449.564 475.715 448.697C475.023 447.818 474.701 446.746 474.748 445.48L474.783 445.375H479.037C479.037 446.125 479.354 446.764 479.986 447.291C480.619 447.818 481.463 448.082 482.518 448.082C483.631 448.082 484.469 447.83 485.031 447.326C485.594 446.811 485.875 446.172 485.875 445.41C485.875 443.688 484.803 442.826 482.658 442.826H479.67V439.75H482.658C483.666 439.75 484.398 439.545 484.855 439.135C485.312 438.725 485.541 438.139 485.541 437.377C485.541 436.697 485.301 436.123 484.82 435.654C484.34 435.174 483.572 434.934 482.518 434.934C481.604 434.934 480.842 435.168 480.232 435.637C479.635 436.094 479.336 436.674 479.336 437.377H475.082L475.047 437.271C475 436.158 475.293 435.18 475.926 434.336C476.57 433.492 477.455 432.836 478.58 432.367C479.717 431.887 480.994 431.646 482.412 431.646C484.756 431.646 486.602 432.127 487.949 433.088C489.297 434.037 489.971 435.385 489.971 437.131C489.971 438.01 489.713 438.807 489.197 439.521C488.682 440.236 487.967 440.799 487.053 441.209C489.232 441.982 490.322 443.453 490.322 445.621C490.322 447.402 489.596 448.803 488.143 449.822C486.689 450.842 484.779 451.352 482.412 451.352ZM499.393 451.369C497.459 451.369 495.953 450.871 494.875 449.875C493.797 448.879 493.258 447.508 493.258 445.762C493.258 443.969 493.984 442.516 495.438 441.402C496.902 440.289 499 439.732 501.73 439.732H504.631V438.133C504.631 437.125 504.326 436.322 503.717 435.725C503.119 435.127 502.246 434.828 501.098 434.828C500.441 434.828 499.861 434.91 499.357 435.074C498.854 435.227 498.402 435.449 498.004 435.742L497.617 438.309H494.348L494.312 433.615C495.238 432.994 496.275 432.508 497.424 432.156C498.584 431.805 499.867 431.629 501.273 431.629C503.688 431.629 505.586 432.197 506.969 433.334C508.363 434.471 509.061 436.088 509.061 438.186V446.57C509.061 446.828 509.061 447.08 509.061 447.326C509.072 447.561 509.09 447.801 509.113 448.047L511.047 448.293V451H505.264C505.146 450.59 505.035 450.191 504.93 449.805C504.836 449.418 504.766 449.031 504.719 448.645C504.086 449.441 503.318 450.098 502.416 450.613C501.514 451.117 500.506 451.369 499.393 451.369ZM500.395 447.941C501.297 447.941 502.129 447.736 502.891 447.326C503.664 446.904 504.244 446.377 504.631 445.744V442.562H501.678C500.354 442.562 499.352 442.873 498.672 443.494C498.004 444.104 497.67 444.818 497.67 445.639C497.67 447.174 498.578 447.941 500.395 447.941ZM513.648 451V448.293L516.443 447.766V435.232L513.648 434.705V431.98H523.492V434.705L520.873 435.232V444.338L520.979 444.355L528.08 431.98H535.305V434.705L532.51 435.232V447.766L535.305 448.293V451H525.443V448.293L528.08 447.766V438.625L527.975 438.607L520.873 451H513.648ZM524.547 428.729C522.73 428.729 521.295 428.26 520.24 427.322C519.197 426.385 518.688 425.172 518.711 423.684L518.746 423.578H521.875C521.875 424.328 522.086 424.943 522.508 425.424C522.941 425.904 523.621 426.145 524.547 426.145C525.449 426.145 526.117 425.91 526.551 425.441C526.984 424.961 527.201 424.34 527.201 423.578H530.33L530.365 423.684C530.377 425.172 529.861 426.385 528.818 427.322C527.775 428.26 526.352 428.729 524.547 428.729ZM538.398 451V448.293L541.193 447.766V435.232L538.398 434.705V431.98H548.102V434.705L545.623 435.232V439.891H552.795V435.232L550.316 434.705V431.98H560.02V434.705L557.225 435.232V447.766L560.02 448.293V451H550.316V448.293L552.795 447.766V443.318H545.623V447.766L548.102 448.293V451H538.398ZM571.639 451.369C569.834 451.369 568.27 450.971 566.945 450.174C565.621 449.365 564.59 448.252 563.852 446.834C563.125 445.416 562.762 443.793 562.762 441.965V441.227C562.762 439.375 563.119 437.729 563.834 436.287C564.561 434.834 565.551 433.697 566.805 432.877C568.07 432.045 569.518 431.629 571.146 431.629C573.713 431.629 575.664 432.391 577 433.914C578.348 435.438 579.021 437.529 579.021 440.189V442.721H567.35L567.314 442.809C567.385 444.309 567.818 445.545 568.615 446.518C569.412 447.479 570.549 447.959 572.025 447.959C573.057 447.959 573.994 447.818 574.838 447.537C575.682 447.256 576.467 446.857 577.193 446.342L578.564 449.119C577.814 449.764 576.859 450.303 575.699 450.736C574.551 451.158 573.197 451.369 571.639 451.369ZM567.42 439.609H574.785V439.152C574.785 437.91 574.492 436.902 573.906 436.129C573.332 435.355 572.43 434.969 571.199 434.969C570.121 434.969 569.248 435.402 568.58 436.27C567.924 437.137 567.52 438.221 567.367 439.521L567.42 439.609ZM581.236 458.312V455.588L583.803 455.061V435.232L581.008 434.705V431.98H587.775L588.057 434.23C588.654 433.398 589.369 432.76 590.201 432.314C591.045 431.857 592.041 431.629 593.189 431.629C594.736 431.629 596.061 432.051 597.162 432.895C598.264 433.738 599.102 434.916 599.676 436.428C600.262 437.939 600.555 439.709 600.555 441.736V442.105C600.555 443.957 600.262 445.58 599.676 446.975C599.09 448.357 598.246 449.436 597.145 450.209C596.043 450.982 594.725 451.369 593.189 451.369C591.057 451.369 589.398 450.619 588.215 449.119V455.061L590.922 455.588V458.312H581.236ZM591.854 447.959C593.307 447.959 594.379 447.426 595.07 446.359C595.773 445.281 596.125 443.863 596.125 442.105V441.736C596.125 439.779 595.768 438.191 595.053 436.973C594.35 435.742 593.271 435.127 591.818 435.127C590.998 435.127 590.283 435.314 589.674 435.689C589.064 436.053 588.578 436.568 588.215 437.236V445.955C588.977 447.291 590.189 447.959 591.854 447.959ZM609.607 451.369C607.674 451.369 606.168 450.871 605.09 449.875C604.012 448.879 603.473 447.508 603.473 445.762C603.473 443.969 604.199 442.516 605.652 441.402C607.117 440.289 609.215 439.732 611.945 439.732H614.846V438.133C614.846 437.125 614.541 436.322 613.932 435.725C613.334 435.127 612.461 434.828 611.312 434.828C610.656 434.828 610.076 434.91 609.572 435.074C609.068 435.227 608.617 435.449 608.219 435.742L607.832 438.309H604.562L604.527 433.615C605.453 432.994 606.49 432.508 607.639 432.156C608.799 431.805 610.082 431.629 611.488 431.629C613.902 431.629 615.801 432.197 617.184 433.334C618.578 434.471 619.275 436.088 619.275 438.186V446.57C619.275 446.828 619.275 447.08 619.275 447.326C619.287 447.561 619.305 447.801 619.328 448.047L621.262 448.293V451H615.479C615.361 450.59 615.25 450.191 615.145 449.805C615.051 449.418 614.98 449.031 614.934 448.645C614.301 449.441 613.533 450.098 612.631 450.613C611.729 451.117 610.721 451.369 609.607 451.369ZM610.609 447.941C611.512 447.941 612.344 447.736 613.105 447.326C613.879 446.904 614.459 446.377 614.846 445.744V442.562H611.893C610.568 442.562 609.566 442.873 608.887 443.494C608.219 444.104 607.885 444.818 607.885 445.639C607.885 447.174 608.793 447.941 610.609 447.941Z" fill="white"/>
<path d="M262.773 502V500.195L264.637 499.844V487.105L262.773 486.754V484.938H270.777C272.043 484.938 273.129 485.16 274.035 485.605C274.949 486.051 275.648 486.672 276.133 487.469C276.625 488.266 276.871 489.191 276.871 490.246C276.871 491.84 276.328 493.121 275.242 494.09C274.164 495.051 272.676 495.531 270.777 495.531H267.59V499.844L269.453 500.195V502H262.773ZM267.59 493.246H270.777C271.816 493.246 272.598 492.965 273.121 492.402C273.652 491.84 273.918 491.129 273.918 490.27C273.918 489.395 273.652 488.668 273.121 488.09C272.598 487.512 271.816 487.223 270.777 487.223H267.59V493.246ZM282.262 502.246C280.973 502.246 279.969 501.914 279.25 501.25C278.531 500.586 278.172 499.672 278.172 498.508C278.172 497.312 278.656 496.344 279.625 495.602C280.602 494.859 282 494.488 283.82 494.488H285.754V493.422C285.754 492.75 285.551 492.215 285.145 491.816C284.746 491.418 284.164 491.219 283.398 491.219C282.961 491.219 282.574 491.273 282.238 491.383C281.902 491.484 281.602 491.633 281.336 491.828L281.078 493.539H278.898L278.875 490.41C279.492 489.996 280.184 489.672 280.949 489.438C281.723 489.203 282.578 489.086 283.516 489.086C285.125 489.086 286.391 489.465 287.312 490.223C288.242 490.98 288.707 492.059 288.707 493.457V499.047C288.707 499.219 288.707 499.387 288.707 499.551C288.715 499.707 288.727 499.867 288.742 500.031L290.031 500.195V502H286.176C286.098 501.727 286.023 501.461 285.953 501.203C285.891 500.945 285.844 500.688 285.812 500.43C285.391 500.961 284.879 501.398 284.277 501.742C283.676 502.078 283.004 502.246 282.262 502.246ZM282.93 499.961C283.531 499.961 284.086 499.824 284.594 499.551C285.109 499.27 285.496 498.918 285.754 498.496V496.375H283.785C282.902 496.375 282.234 496.582 281.781 496.996C281.336 497.402 281.113 497.879 281.113 498.426C281.113 499.449 281.719 499.961 282.93 499.961ZM296.746 502.234C295.801 502.234 294.934 502.086 294.145 501.789C293.363 501.484 292.742 501.043 292.281 500.465C291.82 499.879 291.605 499.164 291.637 498.32L291.66 498.25H294.496C294.496 498.75 294.707 499.176 295.129 499.527C295.551 499.879 296.113 500.055 296.816 500.055C297.559 500.055 298.117 499.887 298.492 499.551C298.867 499.207 299.055 498.781 299.055 498.273C299.055 497.125 298.34 496.551 296.91 496.551H294.918V494.5H296.91C297.582 494.5 298.07 494.363 298.375 494.09C298.68 493.816 298.832 493.426 298.832 492.918C298.832 492.465 298.672 492.082 298.352 491.77C298.031 491.449 297.52 491.289 296.816 491.289C296.207 491.289 295.699 491.445 295.293 491.758C294.895 492.062 294.695 492.449 294.695 492.918H291.859L291.836 492.848C291.805 492.105 292 491.453 292.422 490.891C292.852 490.328 293.441 489.891 294.191 489.578C294.949 489.258 295.801 489.098 296.746 489.098C298.309 489.098 299.539 489.418 300.438 490.059C301.336 490.691 301.785 491.59 301.785 492.754C301.785 493.34 301.613 493.871 301.27 494.348C300.926 494.824 300.449 495.199 299.84 495.473C301.293 495.988 302.02 496.969 302.02 498.414C302.02 499.602 301.535 500.535 300.566 501.215C299.598 501.895 298.324 502.234 296.746 502.234ZM303.684 506.875V505.059L305.395 504.707V491.488L303.531 491.137V489.32H308.043L308.23 490.82C308.629 490.266 309.105 489.84 309.66 489.543C310.223 489.238 310.887 489.086 311.652 489.086C312.684 489.086 313.566 489.367 314.301 489.93C315.035 490.492 315.594 491.277 315.977 492.285C316.367 493.293 316.562 494.473 316.562 495.824V496.07C316.562 497.305 316.367 498.387 315.977 499.316C315.586 500.238 315.023 500.957 314.289 501.473C313.555 501.988 312.676 502.246 311.652 502.246C310.23 502.246 309.125 501.746 308.336 500.746V504.707L310.141 505.059V506.875H303.684ZM310.762 499.973C311.73 499.973 312.445 499.617 312.906 498.906C313.375 498.188 313.609 497.242 313.609 496.07V495.824C313.609 494.52 313.371 493.461 312.895 492.648C312.426 491.828 311.707 491.418 310.738 491.418C310.191 491.418 309.715 491.543 309.309 491.793C308.902 492.035 308.578 492.379 308.336 492.824V498.637C308.844 499.527 309.652 499.973 310.762 499.973ZM322.598 502.246C321.309 502.246 320.305 501.914 319.586 501.25C318.867 500.586 318.508 499.672 318.508 498.508C318.508 497.312 318.992 496.344 319.961 495.602C320.938 494.859 322.336 494.488 324.156 494.488H326.09V493.422C326.09 492.75 325.887 492.215 325.48 491.816C325.082 491.418 324.5 491.219 323.734 491.219C323.297 491.219 322.91 491.273 322.574 491.383C322.238 491.484 321.938 491.633 321.672 491.828L321.414 493.539H319.234L319.211 490.41C319.828 489.996 320.52 489.672 321.285 489.438C322.059 489.203 322.914 489.086 323.852 489.086C325.461 489.086 326.727 489.465 327.648 490.223C328.578 490.98 329.043 492.059 329.043 493.457V499.047C329.043 499.219 329.043 499.387 329.043 499.551C329.051 499.707 329.062 499.867 329.078 500.031L330.367 500.195V502H326.512C326.434 501.727 326.359 501.461 326.289 501.203C326.227 500.945 326.18 500.688 326.148 500.43C325.727 500.961 325.215 501.398 324.613 501.742C324.012 502.078 323.34 502.246 322.598 502.246ZM323.266 499.961C323.867 499.961 324.422 499.824 324.93 499.551C325.445 499.27 325.832 498.918 326.09 498.496V496.375H324.121C323.238 496.375 322.57 496.582 322.117 496.996C321.672 497.402 321.449 497.879 321.449 498.426C321.449 499.449 322.055 499.961 323.266 499.961ZM338.031 502.246C336.812 502.246 335.766 501.984 334.891 501.461C334.016 500.93 333.344 500.203 332.875 499.281C332.406 498.352 332.172 497.285 332.172 496.082V494.453C332.172 491.742 332.703 489.648 333.766 488.172C334.836 486.695 336.25 485.785 338.008 485.441C338.859 485.293 339.48 485.105 339.871 484.879C340.27 484.652 340.469 484.285 340.469 483.777H342.754L342.789 483.848C342.805 484.816 342.645 485.555 342.309 486.062C341.973 486.57 341.484 486.941 340.844 487.176C340.211 487.41 339.453 487.609 338.57 487.773C337.453 487.977 336.574 488.375 335.934 488.969C335.293 489.555 334.898 490.375 334.75 491.43L334.797 491.488C335.234 491.059 335.77 490.711 336.402 490.445C337.043 490.172 337.734 490.035 338.477 490.035C339.586 490.035 340.543 490.285 341.348 490.785C342.152 491.277 342.773 491.961 343.211 492.836C343.656 493.711 343.879 494.723 343.879 495.871V496.117C343.879 497.328 343.641 498.395 343.164 499.316C342.695 500.23 342.023 500.949 341.148 501.473C340.281 501.988 339.242 502.246 338.031 502.246ZM338.031 499.973C339.008 499.973 339.734 499.617 340.211 498.906C340.688 498.188 340.926 497.258 340.926 496.117V495.871C340.926 494.84 340.684 493.992 340.199 493.328C339.723 492.656 338.992 492.32 338.008 492.32C337.031 492.32 336.305 492.656 335.828 493.328C335.359 493.992 335.125 494.84 335.125 495.871V496.082C335.125 497.223 335.359 498.156 335.828 498.883C336.305 499.609 337.039 499.973 338.031 499.973ZM351.461 502.246C350.242 502.246 349.195 501.973 348.32 501.426C347.445 500.871 346.773 500.109 346.305 499.141C345.836 498.172 345.602 497.055 345.602 495.789V495.543C345.602 494.285 345.836 493.172 346.305 492.203C346.773 491.234 347.445 490.473 348.32 489.918C349.195 489.363 350.234 489.086 351.438 489.086C352.656 489.086 353.703 489.363 354.578 489.918C355.453 490.465 356.125 491.227 356.594 492.203C357.062 493.172 357.297 494.285 357.297 495.543V495.789C357.297 497.062 357.062 498.184 356.594 499.152C356.125 500.121 355.453 500.879 354.578 501.426C353.711 501.973 352.672 502.246 351.461 502.246ZM351.461 499.973C352.438 499.973 353.164 499.586 353.641 498.812C354.117 498.031 354.355 497.023 354.355 495.789V495.543C354.355 494.332 354.113 493.336 353.629 492.555C353.152 491.766 352.422 491.371 351.438 491.371C350.461 491.371 349.734 491.766 349.258 492.555C348.789 493.336 348.555 494.332 348.555 495.543V495.789C348.555 497.023 348.789 498.031 349.258 498.812C349.734 499.586 350.469 499.973 351.461 499.973ZM361.633 502V500.195L363.496 499.844V491.582H361.141L360.988 493.41H358.645V489.32H371.359V493.41H369.004L368.852 491.582H366.449V499.844L368.301 500.195V502H361.633ZM376.973 502.246C375.684 502.246 374.68 501.914 373.961 501.25C373.242 500.586 372.883 499.672 372.883 498.508C372.883 497.312 373.367 496.344 374.336 495.602C375.312 494.859 376.711 494.488 378.531 494.488H380.465V493.422C380.465 492.75 380.262 492.215 379.855 491.816C379.457 491.418 378.875 491.219 378.109 491.219C377.672 491.219 377.285 491.273 376.949 491.383C376.613 491.484 376.312 491.633 376.047 491.828L375.789 493.539H373.609L373.586 490.41C374.203 489.996 374.895 489.672 375.66 489.438C376.434 489.203 377.289 489.086 378.227 489.086C379.836 489.086 381.102 489.465 382.023 490.223C382.953 490.98 383.418 492.059 383.418 493.457V499.047C383.418 499.219 383.418 499.387 383.418 499.551C383.426 499.707 383.438 499.867 383.453 500.031L384.742 500.195V502H380.887C380.809 501.727 380.734 501.461 380.664 501.203C380.602 500.945 380.555 500.688 380.523 500.43C380.102 500.961 379.59 501.398 378.988 501.742C378.387 502.078 377.715 502.246 376.973 502.246ZM377.641 499.961C378.242 499.961 378.797 499.824 379.305 499.551C379.82 499.27 380.207 498.918 380.465 498.496V496.375H378.496C377.613 496.375 376.945 496.582 376.492 496.996C376.047 497.402 375.824 497.879 375.824 498.426C375.824 499.449 376.43 499.961 377.641 499.961ZM386.289 502L386.277 499.609L386.688 499.598C387.227 499.598 387.641 499.445 387.93 499.141C388.219 498.836 388.422 498.328 388.539 497.617C388.656 496.906 388.715 495.941 388.715 494.723V491.488L386.852 491.137V489.32H400.047V491.137L398.184 491.488V499.844L400.047 500.195V502H393.379V500.195L395.242 499.844V491.617H391.668V494.723C391.668 497.223 391.305 499.062 390.578 500.242C389.852 501.414 388.617 502 386.875 502H386.289ZM411.719 502V500.195L413.582 499.844V487.199H410.148L409.902 489.379H407.676V484.938H422.453V489.379H420.227L419.969 487.199H416.535V499.844L418.398 500.195V502H411.719ZM426.672 507.121C426.43 507.121 426.148 507.098 425.828 507.051C425.516 507.004 425.242 506.945 425.008 506.875L425.336 504.66C425.469 504.684 425.637 504.703 425.84 504.719C426.043 504.734 426.203 504.742 426.32 504.742C426.812 504.742 427.227 504.59 427.562 504.285C427.898 503.98 428.172 503.547 428.383 502.984L428.77 501.977L424.434 491.348L422.957 491.137V489.32H429.098V491.137L427.551 491.371L429.742 497.277L430.129 498.379H430.199L432.801 491.359L431.242 491.137V489.32H437.066V491.137L435.695 491.336L430.785 503.91C430.441 504.809 429.953 505.566 429.32 506.184C428.688 506.809 427.805 507.121 426.672 507.121ZM437.664 502L437.652 499.609L438.062 499.598C438.602 499.598 439.016 499.445 439.305 499.141C439.594 498.836 439.797 498.328 439.914 497.617C440.031 496.906 440.09 495.941 440.09 494.723V491.488L438.227 491.137V489.32H451.422V491.137L449.559 491.488V499.844L451.422 500.195V502H444.754V500.195L446.617 499.844V491.617H443.043V494.723C443.043 497.223 442.68 499.062 441.953 500.242C441.227 501.414 439.992 502 438.25 502H437.664ZM459.074 502.246C457.871 502.246 456.828 501.98 455.945 501.449C455.062 500.91 454.375 500.168 453.883 499.223C453.398 498.277 453.156 497.195 453.156 495.977V495.484C453.156 494.25 453.395 493.152 453.871 492.191C454.355 491.223 455.016 490.465 455.852 489.918C456.695 489.363 457.66 489.086 458.746 489.086C460.457 489.086 461.758 489.594 462.648 490.609C463.547 491.625 463.996 493.02 463.996 494.793V496.48H456.215L456.191 496.539C456.238 497.539 456.527 498.363 457.059 499.012C457.59 499.652 458.348 499.973 459.332 499.973C460.02 499.973 460.645 499.879 461.207 499.691C461.77 499.504 462.293 499.238 462.777 498.895L463.691 500.746C463.191 501.176 462.555 501.535 461.781 501.824C461.016 502.105 460.113 502.246 459.074 502.246ZM456.262 494.406H461.172V494.102C461.172 493.273 460.977 492.602 460.586 492.086C460.203 491.57 459.602 491.312 458.781 491.312C458.062 491.312 457.48 491.602 457.035 492.18C456.598 492.758 456.328 493.48 456.227 494.348L456.262 494.406ZM468.484 502V500.195L470.348 499.844V491.582H467.992L467.84 493.41H465.496V489.32H478.211V493.41H475.855L475.703 491.582H473.301V499.844L475.152 500.195V502H468.484ZM483.824 502.246C482.535 502.246 481.531 501.914 480.812 501.25C480.094 500.586 479.734 499.672 479.734 498.508C479.734 497.312 480.219 496.344 481.188 495.602C482.164 494.859 483.562 494.488 485.383 494.488H487.316V493.422C487.316 492.75 487.113 492.215 486.707 491.816C486.309 491.418 485.727 491.219 484.961 491.219C484.523 491.219 484.137 491.273 483.801 491.383C483.465 491.484 483.164 491.633 482.898 491.828L482.641 493.539H480.461L480.438 490.41C481.055 489.996 481.746 489.672 482.512 489.438C483.285 489.203 484.141 489.086 485.078 489.086C486.688 489.086 487.953 489.465 488.875 490.223C489.805 490.98 490.27 492.059 490.27 493.457V499.047C490.27 499.219 490.27 499.387 490.27 499.551C490.277 499.707 490.289 499.867 490.305 500.031L491.594 500.195V502H487.738C487.66 501.727 487.586 501.461 487.516 501.203C487.453 500.945 487.406 500.688 487.375 500.43C486.953 500.961 486.441 501.398 485.84 501.742C485.238 502.078 484.566 502.246 483.824 502.246ZM484.492 499.961C485.094 499.961 485.648 499.824 486.156 499.551C486.672 499.27 487.059 498.918 487.316 498.496V496.375H485.348C484.465 496.375 483.797 496.582 483.344 496.996C482.898 497.402 482.676 497.879 482.676 498.426C482.676 499.449 483.281 499.961 484.492 499.961ZM499.012 502.246C497.809 502.246 496.766 501.98 495.883 501.449C495 500.91 494.312 500.168 493.82 499.223C493.336 498.277 493.094 497.195 493.094 495.977V495.484C493.094 494.25 493.332 493.152 493.809 492.191C494.293 491.223 494.953 490.465 495.789 489.918C496.633 489.363 497.598 489.086 498.684 489.086C500.395 489.086 501.695 489.594 502.586 490.609C503.484 491.625 503.934 493.02 503.934 494.793V496.48H496.152L496.129 496.539C496.176 497.539 496.465 498.363 496.996 499.012C497.527 499.652 498.285 499.973 499.27 499.973C499.957 499.973 500.582 499.879 501.145 499.691C501.707 499.504 502.23 499.238 502.715 498.895L503.629 500.746C503.129 501.176 502.492 501.535 501.719 501.824C500.953 502.105 500.051 502.246 499.012 502.246ZM496.199 494.406H501.109V494.102C501.109 493.273 500.914 492.602 500.523 492.086C500.141 491.57 499.539 491.312 498.719 491.312C498 491.312 497.418 491.602 496.973 492.18C496.535 492.758 496.266 493.48 496.164 494.348L496.199 494.406ZM505.902 502V500.195L507.777 499.844V491.488L505.902 491.137V489.32H512.945C514.625 489.32 515.93 489.613 516.859 490.199C517.789 490.785 518.254 491.652 518.254 492.801C518.254 493.41 518.07 493.949 517.703 494.418C517.336 494.879 516.793 495.234 516.074 495.484C516.988 495.68 517.676 496.043 518.137 496.574C518.598 497.098 518.828 497.715 518.828 498.426C518.828 499.598 518.387 500.488 517.504 501.098C516.629 501.699 515.379 502 513.754 502H505.902ZM510.719 494.57H512.992C514.531 494.562 515.301 494.07 515.301 493.094C515.301 492.086 514.52 491.582 512.957 491.582H510.719V494.57ZM510.719 499.75H513.754C515.168 499.75 515.875 499.223 515.875 498.168C515.875 497.121 515.168 496.598 513.754 496.598H510.719V499.75ZM526.445 502V500.195L528.309 499.844V487.105L526.445 486.754V484.938H533.066V486.754L531.262 487.105V492.215H532.926L536.406 487.199C537.07 486.285 537.668 485.656 538.199 485.312C538.73 484.961 539.332 484.785 540.004 484.785C540.41 484.785 540.766 484.836 541.07 484.938C541.383 485.039 541.68 485.18 541.961 485.359L541.492 487.527C541.305 487.488 541.137 487.457 540.988 487.434C540.848 487.402 540.703 487.387 540.555 487.387C540.211 487.387 539.891 487.488 539.594 487.691C539.297 487.887 538.953 488.246 538.562 488.77L535.48 493.035L540.602 499.902L542.312 500.195V502H536.043V500.195L537.156 500.043L537.121 499.996L533.348 494.828H531.262V499.844L533.066 500.195V502H526.445ZM543.602 502V500.195L545.465 499.844V491.488L543.602 491.137V489.32H550.164V491.137L548.418 491.488V497.559L548.488 497.57L553.223 489.32H558.039V491.137L556.176 491.488V499.844L558.039 500.195V502H551.465V500.195L553.223 499.844V493.75L553.152 493.738L548.418 502H543.602ZM559.645 506.875V505.059L561.355 504.707V491.488L559.492 491.137V489.32H564.004L564.191 490.82C564.59 490.266 565.066 489.84 565.621 489.543C566.184 489.238 566.848 489.086 567.613 489.086C568.645 489.086 569.527 489.367 570.262 489.93C570.996 490.492 571.555 491.277 571.938 492.285C572.328 493.293 572.523 494.473 572.523 495.824V496.07C572.523 497.305 572.328 498.387 571.938 499.316C571.547 500.238 570.984 500.957 570.25 501.473C569.516 501.988 568.637 502.246 567.613 502.246C566.191 502.246 565.086 501.746 564.297 500.746V504.707L566.102 505.059V506.875H559.645ZM566.723 499.973C567.691 499.973 568.406 499.617 568.867 498.906C569.336 498.188 569.57 497.242 569.57 496.07V495.824C569.57 494.52 569.332 493.461 568.855 492.648C568.387 491.828 567.668 491.418 566.699 491.418C566.152 491.418 565.676 491.543 565.27 491.793C564.863 492.035 564.539 492.379 564.297 492.824V498.637C564.805 499.527 565.613 499.973 566.723 499.973ZM574.492 502V500.195L576.355 499.844V491.488L574.492 491.137V489.32H581.055V491.137L579.309 491.488V497.559L579.379 497.57L584.113 489.32H588.93V491.137L587.066 491.488V499.844L588.93 500.195V502H582.355V500.195L584.113 499.844V493.75L584.043 493.738L579.309 502H574.492ZM590.805 502L590.793 499.609L591.203 499.598C591.742 499.598 592.156 499.445 592.445 499.141C592.734 498.836 592.938 498.328 593.055 497.617C593.172 496.906 593.23 495.941 593.23 494.723V491.488L591.367 491.137V489.32H604.562V491.137L602.699 491.488V499.844L604.562 500.195V502H597.895V500.195L599.758 499.844V491.617H596.184V494.723C596.184 497.223 595.82 499.062 595.094 500.242C594.367 501.414 593.133 502 591.391 502H590.805ZM606.344 502L606.332 499.609L606.742 499.598C607.281 499.598 607.695 499.445 607.984 499.141C608.273 498.836 608.477 498.328 608.594 497.617C608.711 496.906 608.77 495.941 608.77 494.723V491.488L606.906 491.137V489.32H620.102V491.137L618.238 491.488V499.844L620.102 500.195V502H613.434V500.195L615.297 499.844V491.617H611.723V494.723C611.723 497.223 611.359 499.062 610.633 500.242C609.906 501.414 608.672 502 606.93 502H606.344ZM623.043 506.008L621.52 505.105C621.855 504.559 622.109 503.992 622.281 503.406C622.453 502.82 622.539 502.18 622.539 501.484V499.258H625.293L625.281 501.379C625.281 502.23 625.07 503.074 624.648 503.91C624.227 504.746 623.691 505.445 623.043 506.008ZM633.414 502V500.195L635.277 499.844V491.488L633.414 491.137V489.32H639.977V491.137L638.23 491.488V497.559L638.301 497.57L643.035 489.32H647.852V491.137L645.988 491.488V499.844L647.852 500.195V502H641.277V500.195L643.035 499.844V493.75L642.965 493.738L638.23 502H633.414ZM655.516 502.246C654.328 502.246 653.297 501.977 652.422 501.438C651.555 500.891 650.883 500.141 650.406 499.188C649.938 498.227 649.703 497.121 649.703 495.871V495.461C649.703 494.234 649.938 493.141 650.406 492.18C650.875 491.219 651.543 490.465 652.41 489.918C653.285 489.363 654.316 489.086 655.504 489.086C656.59 489.086 657.535 489.262 658.34 489.613C659.145 489.957 659.805 490.387 660.32 490.902L660.332 494.289H658.082L657.648 492.051C657.43 491.824 657.152 491.645 656.816 491.512C656.48 491.371 656.113 491.301 655.715 491.301C654.738 491.301 653.984 491.688 653.453 492.461C652.922 493.227 652.656 494.227 652.656 495.461V495.871C652.656 497.215 652.922 498.234 653.453 498.93C653.992 499.625 654.684 499.973 655.527 499.973C656.199 499.973 656.75 499.789 657.18 499.422C657.609 499.055 657.891 498.547 658.023 497.898H660.578L660.613 497.969C660.473 499.211 659.992 500.234 659.172 501.039C658.359 501.844 657.141 502.246 655.516 502.246ZM665.219 502V500.195L667.082 499.844V491.582H664.727L664.574 493.41H662.23V489.32H674.945V493.41H672.59L672.438 491.582H670.035V499.844L671.887 500.195V502H665.219ZM677.418 495.883V493.598H683.652V495.883H677.418ZM686.277 502V500.195L689.055 499.844V487.773L686.23 487.797V486.062L691.996 484.938V499.844L694.773 500.195V502H686.277ZM702.168 502.246C700.457 502.246 699.074 501.828 698.02 500.992C696.973 500.148 696.449 498.938 696.449 497.359C696.449 496.422 696.723 495.594 697.27 494.875C697.816 494.156 698.559 493.613 699.496 493.246C698.676 492.895 698.035 492.391 697.574 491.734C697.113 491.07 696.883 490.305 696.883 489.438C696.883 487.922 697.363 486.754 698.324 485.934C699.293 485.105 700.566 484.691 702.145 484.691C703.715 484.691 704.988 485.105 705.965 485.934C706.949 486.754 707.441 487.922 707.441 489.438C707.441 490.305 707.203 491.07 706.727 491.734C706.25 492.391 705.605 492.895 704.793 493.246C705.738 493.613 706.484 494.156 707.031 494.875C707.578 495.594 707.852 496.422 707.852 497.359C707.852 498.938 707.324 500.148 706.27 500.992C705.223 501.828 703.855 502.246 702.168 502.246ZM702.168 492.086C702.863 492.086 703.422 491.855 703.844 491.395C704.273 490.934 704.488 490.316 704.488 489.543C704.488 488.785 704.27 488.168 703.832 487.691C703.402 487.215 702.84 486.977 702.145 486.977C701.434 486.977 700.871 487.211 700.457 487.68C700.043 488.141 699.836 488.762 699.836 489.543C699.836 490.316 700.043 490.934 700.457 491.395C700.879 491.855 701.449 492.086 702.168 492.086ZM702.168 499.973C702.98 499.973 703.641 499.727 704.148 499.234C704.656 498.734 704.91 498.059 704.91 497.207C704.91 496.363 704.648 495.684 704.125 495.168C703.609 494.645 702.949 494.383 702.145 494.383C701.332 494.383 700.672 494.645 700.164 495.168C699.656 495.684 699.402 496.363 699.402 497.207C699.402 498.066 699.652 498.742 700.152 499.234C700.66 499.727 701.332 499.973 702.168 499.973ZM709.703 502V500.043L715.258 493.984C715.859 493.305 716.332 492.719 716.676 492.227C717.02 491.734 717.262 491.285 717.402 490.879C717.543 490.473 717.613 490.062 717.613 489.648C717.613 488.898 717.395 488.27 716.957 487.762C716.52 487.246 715.887 486.988 715.059 486.988C714.184 486.988 713.512 487.266 713.043 487.82C712.574 488.367 712.34 489.133 712.34 490.117H709.48L709.457 490.047C709.426 489.039 709.637 488.133 710.09 487.328C710.551 486.516 711.207 485.875 712.059 485.406C712.918 484.93 713.938 484.691 715.117 484.691C716.242 484.691 717.211 484.898 718.023 485.312C718.844 485.727 719.473 486.301 719.91 487.035C720.355 487.77 720.578 488.617 720.578 489.578C720.578 490.555 720.301 491.496 719.746 492.402C719.191 493.301 718.352 494.352 717.227 495.555L713.418 499.668L713.441 499.727H718.551L718.727 497.957H721.094V502H709.703Z" fill="white"/>
<path d="M263.008 565V563.043L268.562 556.984C269.164 556.305 269.637 555.719 269.98 555.227C270.324 554.734 270.566 554.285 270.707 553.879C270.848 553.473 270.918 553.062 270.918 552.648C270.918 551.898 270.699 551.27 270.262 550.762C269.824 550.246 269.191 549.988 268.363 549.988C267.488 549.988 266.816 550.266 266.348 550.82C265.879 551.367 265.645 552.133 265.645 553.117H262.785L262.762 553.047C262.73 552.039 262.941 551.133 263.395 550.328C263.855 549.516 264.512 548.875 265.363 548.406C266.223 547.93 267.242 547.691 268.422 547.691C269.547 547.691 270.516 547.898 271.328 548.312C272.148 548.727 272.777 549.301 273.215 550.035C273.66 550.77 273.883 551.617 273.883 552.578C273.883 553.555 273.605 554.496 273.051 555.402C272.496 556.301 271.656 557.352 270.531 558.555L266.723 562.668L266.746 562.727H271.855L272.031 560.957H274.398V565H263.008ZM282.191 565.246C280.449 565.246 279.07 564.664 278.055 563.5C277.047 562.328 276.543 560.633 276.543 558.414V554.535C276.543 552.316 277.047 550.621 278.055 549.449C279.062 548.277 280.434 547.691 282.168 547.691C283.895 547.691 285.266 548.277 286.281 549.449C287.297 550.621 287.805 552.316 287.805 554.535V558.414C287.805 560.641 287.301 562.336 286.293 563.5C285.285 564.664 283.918 565.246 282.191 565.246ZM282.191 562.973C283.059 562.973 283.719 562.633 284.172 561.953C284.625 561.273 284.852 560.223 284.852 558.801V554.125C284.852 552.719 284.621 551.676 284.16 550.996C283.699 550.316 283.035 549.977 282.168 549.977C281.293 549.977 280.625 550.316 280.164 550.996C279.711 551.668 279.484 552.711 279.484 554.125V558.801C279.484 560.223 279.715 561.273 280.176 561.953C280.637 562.633 281.309 562.973 282.191 562.973ZM290.008 565V563.043L295.562 556.984C296.164 556.305 296.637 555.719 296.98 555.227C297.324 554.734 297.566 554.285 297.707 553.879C297.848 553.473 297.918 553.062 297.918 552.648C297.918 551.898 297.699 551.27 297.262 550.762C296.824 550.246 296.191 549.988 295.363 549.988C294.488 549.988 293.816 550.266 293.348 550.82C292.879 551.367 292.645 552.133 292.645 553.117H289.785L289.762 553.047C289.73 552.039 289.941 551.133 290.395 550.328C290.855 549.516 291.512 548.875 292.363 548.406C293.223 547.93 294.242 547.691 295.422 547.691C296.547 547.691 297.516 547.898 298.328 548.312C299.148 548.727 299.777 549.301 300.215 550.035C300.66 550.77 300.883 551.617 300.883 552.578C300.883 553.555 300.605 554.496 300.051 555.402C299.496 556.301 298.656 557.352 297.531 558.555L293.723 562.668L293.746 562.727H298.855L299.031 560.957H301.398V565H290.008ZM309.191 565.246C307.449 565.246 306.07 564.664 305.055 563.5C304.047 562.328 303.543 560.633 303.543 558.414V554.535C303.543 552.316 304.047 550.621 305.055 549.449C306.062 548.277 307.434 547.691 309.168 547.691C310.895 547.691 312.266 548.277 313.281 549.449C314.297 550.621 314.805 552.316 314.805 554.535V558.414C314.805 560.641 314.301 562.336 313.293 563.5C312.285 564.664 310.918 565.246 309.191 565.246ZM309.191 562.973C310.059 562.973 310.719 562.633 311.172 561.953C311.625 561.273 311.852 560.223 311.852 558.801V554.125C311.852 552.719 311.621 551.676 311.16 550.996C310.699 550.316 310.035 549.977 309.168 549.977C308.293 549.977 307.625 550.316 307.164 550.996C306.711 551.668 306.484 552.711 306.484 554.125V558.801C306.484 560.223 306.715 561.273 307.176 561.953C307.637 562.633 308.309 562.973 309.191 562.973ZM322.691 565V563.195L324.555 562.844V554.488L322.691 554.137V552.32H333.484V556.281H331.609L331.457 554.617H327.508V562.844L329.359 563.195V565H322.691ZM340.984 565.246C339.766 565.246 338.719 564.973 337.844 564.426C336.969 563.871 336.297 563.109 335.828 562.141C335.359 561.172 335.125 560.055 335.125 558.789V558.543C335.125 557.285 335.359 556.172 335.828 555.203C336.297 554.234 336.969 553.473 337.844 552.918C338.719 552.363 339.758 552.086 340.961 552.086C342.18 552.086 343.227 552.363 344.102 552.918C344.977 553.465 345.648 554.227 346.117 555.203C346.586 556.172 346.82 557.285 346.82 558.543V558.789C346.82 560.062 346.586 561.184 346.117 562.152C345.648 563.121 344.977 563.879 344.102 564.426C343.234 564.973 342.195 565.246 340.984 565.246ZM340.984 562.973C341.961 562.973 342.688 562.586 343.164 561.812C343.641 561.031 343.879 560.023 343.879 558.789V558.543C343.879 557.332 343.637 556.336 343.152 555.555C342.676 554.766 341.945 554.371 340.961 554.371C339.984 554.371 339.258 554.766 338.781 555.555C338.312 556.336 338.078 557.332 338.078 558.543V558.789C338.078 560.023 338.312 561.031 338.781 561.812C339.258 562.586 339.992 562.973 340.984 562.973ZM347.793 568.773L347.547 562.703H348.602C349.078 562.188 349.461 561.676 349.75 561.168C350.039 560.66 350.254 560.066 350.395 559.387C350.543 558.699 350.645 557.84 350.699 556.809L350.77 554.477L348.953 554.137V552.32H361.586V554.137L359.723 554.488V562.727H361.492L361.258 568.773H358.539V565H350.523V568.773H347.793ZM351.988 562.715H356.781V554.77H353.711L353.641 556.809C353.586 558.129 353.414 559.273 353.125 560.242C352.836 561.203 352.457 562.027 351.988 562.715ZM364.07 565V562.27H367.012V565H364.07Z" fill="white"/>
</g>
<defs>
<clipPath id="clip0">
<rect width="1920" height="6590" fill="white" transform="translate(0 -5936)"/>
</clipPath>
</defs>
</svg>
